PathFileType	4	(X/Y/Z)	c:\Git\powerlifing_model_clean\simulations\HC835B\Session1\HC835B_CUT_0003\marker_experimental.trc
DataRate	CameraRate	NumFrames	NumMarkers	Units	OrigDataRate	OrigDataStartFrame	OrigNumFrames
240.000000	240.000000	4	38	mm	240.000000	40	81
Frame#	Time	RPSI			LPSI			RASI			LASI			RTH1			RTH2			RTH3			RTH4			RSK1			RSK2			RSK3			RSK4			RCAL1			RCAL2			RCAL3			RST			RPT			RTN			RFMB			RSMB			RVMB			RFMH			RSMH			RVMH			RPM			LTH1			LTH2			LTH3			LTH4			LSK1			LSK2			LSK3			LSK4			LCAL1			LCAL2			LCAL3			LFMH			LVMH			
		X1	Y1	Z1	X2	Y2	Z2	X3	Y3	Z3	X4	Y4	Z4	X5	Y5	Z5	X6	Y6	Z6	X7	Y7	Z7	X8	Y8	Z8	X9	Y9	Z9	X10	Y10	Z10	X11	Y11	Z11	X12	Y12	Z12	X13	Y13	Z13	X14	Y14	Z14	X15	Y15	Z15	X16	Y16	Z16	X17	Y17	Z17	X18	Y18	Z18	X19	Y19	Z19	X20	Y20	Z20	X21	Y21	Z21	X22	Y22	Z22	X23	Y23	Z23	X24	Y24	Z24	X25	Y25	Z25	X26	Y26	Z26	X27	Y27	Z27	X28	Y28	Z28	X29	Y29	Z29	X30	Y30	Z30	X31	Y31	Z31	X32	Y32	Z32	X33	Y33	Z33	X34	Y34	Z34	X35	Y35	Z35	X36	Y36	Z36	X37	Y37	Z37	X38	Y38	Z38	

41	0.1666666666666667	180.4215698242188	1000.490783691406	-369.5964660644532	91.3148651123047	972.9837646484377	-319.9563598632813	143.5400390625	950.9326782226565	-595.6137084960939	-53.4418296813965	879.918395996094	-453.7184448242189	321.7932739257813	734.1475830078126	-609.6281127929689	290.7050476074219	723.2328491210939	-660.7760009765626	326.9651184082032	656.2897949218751	-642.1315307617189	289.3075561523438	641.3684082031251	-684.6053466796876	519.9104614257814	289.9454956054688	-533.2982788085939	509.9174194335939	251.1159057617188	-580.3435668945314	541.7061157226564	235.4598999023438	-530.6738891601564	522.3083496093751	194.6150207519532	-570.1425170898439	610.2874145507814	104.4847946166992	-419.5191650390626	585.8287353515626	63.83523178100587	-406.5122985839845	644.3635253906251	71.30432891845705	-432.5860595703126	539.1599731445314	59.9349822998047	-461.1213684082032	641.8414306640626	77.61161041259767	-497.4129638671876	524.5894775390626	69.04692840576173	-521.9555053710939	521.2258911132814	61.7892189025879	-554.8023681640626	557.5070190429689	90.62829589843751	-579.9378662109376	638.8944091796876	49.08342361450197	-539.7721557617189	509.062713623047	46.76129531860352	-603.0574340820314	549.4106445312501	57.25411224365236	-639.2983398437501	624.1723632812501	35.24195098876954	-616.9648437500001	516.0301513671876	35.5215072631836	-689.0130004882814	-71.88485717773439	627.4979858398439	-476.289031982422	-105.2564544677735	642.3336181640626	-523.4179687500001	-86.12117004394533	564.5158691406251	-538.7855224609376	-109.4053802490235	587.3217163085939	-590.2224731445314	130.72900390625	410.3522949218751	-430.517791748047	144.2005157470703	359.2735900878907	-439.088104248047	171.9185791015625	380.5228576660157	-405.0416259765626	194.9197845458985	334.6763610839844	-424.7599182128907	315.3687438964844	406.4485168457032	-308.4476013183594	317.5138244628907	377.1696166992188	-270.5103759765626	361.8680725097657	397.5761718750001	-303.1530456542969	365.2954101562501	225.0423736572266	-441.3877258300782	307.3734130859376	201.2334136962891	-350.3335876464844	
42	0.1708333333333333	174.7740325927735	1001.117004394531	-387.159393310547	86.54262542724611	973.8265380859377	-337.5079650878907	136.8938293457032	951.251892089844	-613.0836791992189	-60.07512283325197	879.447692871094	-467.9500732421876	318.3902893066407	733.1394042968751	-620.9267578125001	288.0966491699219	720.6655883789064	-672.1202392578126	325.1060485839844	654.6542358398439	-651.4359130859376	288.2456359863282	638.3597412109376	-694.2420043945314	519.7791748046876	290.4495849609376	-536.7627563476564	509.7315063476564	250.8524169921876	-583.0994262695314	541.6975708007814	236.0250854492188	-533.3328857421876	522.2039184570314	194.6457672119141	-571.9342041015626	610.4616699218751	106.0507888793946	-420.0299377441407	586.4831542968751	65.18082427978517	-406.9861755371095	644.8255004882814	73.24629211425783	-433.2381591796876	539.8305053710939	60.63170623779298	-461.5368652343751	641.9817504882814	79.30184936523439	-498.0163574218751	524.3159179687501	70.26219940185548	-522.2682495117189	521.4256591796876	62.15476608276369	-555.3041992187501	557.6129150390626	90.95371246337892	-580.5515747070314	639.2141113281251	50.24988937377931	-540.3210449218751	509.3181762695314	46.72972106933594	-603.0510864257814	549.5369262695314	57.12504196166994	-639.4771118164064	624.7491455078126	35.1709327697754	-617.5261840820314	516.1276245117189	35.60910797119141	-689.0122070312501	-80.12782287597658	625.2709350585939	-499.9287414550782	-114.4337234497071	648.1264648437501	-542.4028320312501	-96.40448760986331	570.5675659179689	-560.0939941406251	-119.9758911132813	594.9907836914064	-610.6917724609376	122.0742874145508	406.7619934082032	-461.0194396972657	134.0189056396485	355.9117126464844	-471.3696899414064	163.0950775146485	375.2909851074219	-437.1763610839845	184.472396850586	329.6677246093751	-459.0061645507814	308.7809448242188	393.7056579589845	-342.4324645996094	311.2673645019532	362.5411682128907	-306.0428771972657	355.2532958984376	383.8255310058594	-338.5911865234376	352.5387573242188	218.0605926513672	-485.5269470214845	296.3614196777344	190.9005432128907	-393.8071594238282	
43	0.175	169.1179351806641	1001.8798828125	-405.1092529296876	81.79883575439455	974.9089355468752	-355.2338562011719	129.8303527832032	951.7406005859377	-630.9283447265626	-67.2556838989258	879.2285766601565	-482.3815002441407	314.6850585937501	732.4871826171876	-632.1948242187501	284.8513488769532	718.2363281250001	-683.0119018554689	322.8377380371094	653.3140258789064	-660.6241455078126	286.6373291015626	635.5006713867189	-703.5661010742189	519.4971923828126	291.3193054199219	-540.0359497070314	509.3454895019532	250.9029998779297	-586.0618286132814	541.5300903320314	237.0487518310547	-535.7638549804689	521.9977416992189	194.9118041992188	-573.6578979492189	610.7953491210939	108.0375900268555	-420.735809326172	587.3101196289064	66.92124176025392	-407.5161132812501	645.3830566406251	75.64285278320314	-434.0303649902345	540.5485229492189	61.90026855468751	-462.0148925781251	642.1860351562501	81.29391479492189	-498.7850341796876	525.3484497070314	70.97578430175783	-522.9972534179689	521.7582397460939	62.64257431030275	-555.7086181640626	557.2994384765626	92.1621551513672	-583.6123657226564	639.5710449218751	51.62092208862306	-541.0040283203126	509.5413208007814	46.52172851562501	-602.6201782226564	549.6092529296876	57.04220962524415	-639.6630859375001	625.5265502929689	34.98974609375001	-618.2017211914064	516.1964721679689	35.72398757934571	-688.9751586914064	-90.08096313476564	629.1516113281251	-519.7768554687501	-124.0493087768555	653.7702636718751	-560.6279296875001	-106.5300521850586	576.6289062500001	-580.9512939453126	-131.6912689208985	603.4830322265626	-629.6118774414064	113.4893264770508	403.1567993164064	-490.9941711425782	123.7150421142578	352.2779541015626	-503.8045349121095	153.8804626464844	369.5812072753907	-469.4092712402345	173.6998138427735	324.5037536621094	-493.3936767578126	301.9179382324219	380.6673278808594	-376.8509216308594	304.6523437500001	347.6194152832032	-342.1579895019532	348.3200988769532	369.7415161132813	-374.6351623535157	339.5276794433594	210.2335510253907	-527.7903442382814	284.5493164062501	180.7897644042969	-437.6365661621095	
44	0.1791666666666667	163.5646667480469	1002.957580566406	-423.4443664550782	76.86386108398439	976.2090454101565	-373.1588134765626	122.2841949462891	952.157409667969	-648.7145385742189	-74.00217437744142	879.856140136719	-497.6579895019532	310.6023864746094	732.0541381835939	-643.4725952148439	281.3716430664063	716.0145874023439	-694.1140747070314	320.0207214355469	652.2597656250001	-669.7715454101564	284.4613952636719	632.7576293945314	-712.2891845703126	519.2379150390626	292.4249572753907	-543.5047607421876	508.9050598144532	251.4442443847657	-588.3327636718751	541.3757324218751	238.3740386962891	-538.3364257812501	521.3693237304689	195.406478881836	-575.0994873046876	611.1713256835939	110.5705795288086	-421.6346435546876	588.0067749023439	69.00877380371095	-408.0966796875001	645.9865722656251	78.43626403808595	-435.0198059082032	541.3147583007814	63.59997177124025	-462.4636535644532	642.3992919921876	83.49682617187501	-499.7111206054689	525.8524780273439	72.1146926879883	-523.3538818359376	522.1814575195314	63.44519424438478	-556.0452880859376	557.2535400390626	92.77062225341798	-584.7360229492189	639.9851684570314	53.26257705688478	-541.7216186523439	509.7691345214845	46.76132202148438	-602.9332885742189	549.6988525390626	57.05148696899415	-640.0703125000001	626.1514892578126	34.80352401733399	-618.8104858398439	516.2558593750001	35.88422775268555	-688.9331054687501	-99.71459960937503	635.3562011718751	-538.0114135742189	0	0	0	-116.6372680664063	582.1912841796876	-601.4107055664064	-140.6031188964844	610.3018798828126	-650.0557861328126	104.1954193115235	398.5756835937501	-521.8911743164064	113.2108230590821	348.4092102050782	-536.3561401367189	144.6173553466797	363.5195922851563	-502.2094116210939	162.7842712402344	319.0961608886719	-528.0069580078126	294.8916015625001	367.2022705078126	-411.949432373047	297.4784851074219	332.3193359375001	-379.0964965820313	340.8989562988282	355.3148193359376	-411.3983154296876	325.8954772949219	203.2001953125001	-570.4561157226564	271.9262695312501	170.847900390625	-481.892547607422	
